{
  "accessors": [
    {
      "bufferView": 2,
      "componentType": 5126,
      "count": 381,
      "max": [
        0.2467968910932541,
        0.00047310456284321845,
        0.330491304397583
      ],
      "min": [
        -0.23864105343818665,
        -0.24889244139194489,
        -0.33049240708351135
      ],
      "type": "VEC3"
    },
    {
      "bufferView": 2,
      "byteOffset": 4572,
      "componentType": 5126,
      "count": 381,
      "max": [
        1.0,
        1.0,
        1.0
      ],
      "min": [
        -1.0,
        -1.0,
        -1.0
      ],
      "type": "VEC3"
    },
    {
      "bufferView": 1,
      "componentType": 5126,
      "count": 381,
      "max": [
        0.9993234872817993,
        0.8896029591560364
      ],
      "min": [
        4.656968144445273e-10,
        9.527312272439303e-11
      ],
      "type": "VEC2"
    },
    {
      "bufferView": 1,
      "byteOffset": 3048,
      "componentType": 5126,
      "count": 381,
      "max": [
        0.9993234872817993,
        0.8896029591560364
      ],
      "min": [
        4.656968144445273e-10,
        9.527312272439303e-11
      ],
      "type": "VEC2"
    },
    {
      "bufferView": 0,
      "componentType": 5125,
      "count": 1062,
      "type": "SCALAR"
    }
  ],
  "asset": {
    "extras": {
      "author": "BillyJJackson (https://sketchfab.com/pistonstone)",
      "license": "CC-BY-4.0 (http://creativecommons.org/licenses/by/4.0/)",
      "source": "https://sketchfab.com/3d-models/medicine-wall-cupboard-hospital-3251d73995f54398b118d1aa0bb34489",
      "title": "Medicine Wall Cupboard, Hospital"
    },
    "generator": "Sketchfab-15.22.0",
    "version": "2.0"
  },
  "bufferViews": [
    {
      "buffer": 0,
      "byteLength": 4248,
      "name": "floatBufferViews",
      "target": 34963
    },
    {
      "buffer": 0,
      "byteLength": 6096,
      "byteOffset": 4248,
      "byteStride": 8,
      "name": "floatBufferViews",
      "target": 34962
    },
    {
      "buffer": 0,
      "byteLength": 9144,
      "byteOffset": 10344,
      "byteStride": 12,
      "name": "floatBufferViews",
      "target": 34962
    }
  ],
  "buffers": [
    {
      "byteLength": 19488,
      "uri": "scene.bin"
    }
  ],
  "extensionsUsed": [
    "KHR_materials_specular"
  ],
  "images": [
    {
      "uri": "textures/medince-cupboard-wall_Baked_baseColor.png"
    },
    {
      "uri": "textures/medince-cupboard-wall_Baked_metallicRoughness.png"
    },
    {
      "uri": "textures/medince-cupboard-wall_Baked_specularf0.png"
    }
  ],
  "materials": [
    {
      "doubleSided": true,
      "extensions": {
        "KHR_materials_specular": {
          "specularColorFactor": [
            1.0,
            1.0,
            1.0
          ],
          "specularFactor": 1.0,
          "specularTexture": {
            "index": 2
          }
        }
      },
      "name": "medince-cupboard-wall_Baked",
      "pbrMetallicRoughness": {
        "baseColorTexture": {
          "index": 0
        },
        "metallicRoughnessTexture": {
          "index": 1
        }
      }
    }
  ],
  "meshes": [
    {
      "name": "MedicineWallCupboard_medince-cupboard-wall_Baked_0",
      "primitives": [
        {
          "attributes": {
            "NORMAL": 1,
            "POSITION": 0,
            "TEXCOORD_0": 2,
            "TEXCOORD_1": 3
          },
          "indices": 4,
          "material": 0,
          "mode": 4
        }
      ]
    }
  ],
  "nodes": [
    {
      "children": [
        1
      ],
      "matrix": [
        1.0,
        0.0,
        0.0,
        0.0,
        0.0,
        2.220446049250313e-16,
        -1.0,
        0.0,
        0.0,
        1.0,
        2.220446049250313e-16,
        0.0,
        0.0,
        0.0,
        0.0,
        1.0
      ],
      "name": "Sketchfab_model"
    },
    {
      "children": [
        2
      ],
      "matrix": [
        0.009999999776482582,
        0.0,
        0.0,
        0.0,
        0.0,
        0.0,
        0.009999999776482582,
        0.0,
        0.0,
        -0.009999999776482582,
        0.0,
        0.0,
        0.0,
        0.0,
        0.0,
        1.0
      ],
      "name": "MedicineWallCupboard.fbx"
    },
    {
      "children": [
        3
      ],
      "name": "RootNode"
    },
    {
      "children": [
        4
      ],
      "matrix": [
        100.0,
        0.0,
        0.0,
        0.0,
        0.0,
        -1.629206793918314e-05,
        -99.99999999999868,
        0.0,
        0.0,
        99.99999999999868,
        -1.629206793918314e-05,
        0.0,
        0.0,
        0.0,
        0.0,
        1.0
      ],
      "name": "MedicineWallCupboard"
    },
    {
      "mesh": 0,
      "name": "MedicineWallCupboard_medince-cupboard-wall_Baked_0"
    }
  ],
  "samplers": [
    {
      "magFilter": 9729,
      "minFilter": 9987,
      "wrapS": 10497,
      "wrapT": 10497
    }
  ],
  "scene": 0,
  "scenes": [
    {
      "name": "Sketchfab_Scene",
      "nodes": [
        0
      ]
    }
  ],
  "textures": [
    {
      "sampler": 0,
      "source": 0
    },
    {
      "sampler": 0,
      "source": 1
    },
    {
      "sampler": 0,
      "source": 2
    }
  ]
}
