{
  "accessors": [
    {
      "bufferView": 2,
      "componentType": 5126,
      "count": 3860,
      "max": [
        8.985371589660645,
        1.309918761253357,
        1.5429149866104126
      ],
      "min": [
        -1.0210646390914917,
        -1.9866706132888794,
        -1.2893986701965332
      ],
      "type": "VEC3"
    },
    {
      "bufferView": 2,
      "byteOffset": 46320,
      "componentType": 5126,
      "count": 3860,
      "max": [
        0.9200576543807983,
        0.9872134923934937,
        0.9999978542327881
      ],
      "min": [
        -0.9200587272644043,
        -0.9872404336929321,
        -0.9999980926513672
      ],
      "type": "VEC3"
    },
    {
      "bufferView": 1,
      "componentType": 5126,
      "count": 3860,
      "max": [
        0.48142123222351074,
        0.48515042662620544
      ],
      "min": [
        0.026422277092933655,
        0.030159324407577515
      ],
      "type": "VEC2"
    },
    {
      "bufferView": 0,
      "componentType": 5125,
      "count": 18672,
      "type": "SCALAR"
    },
    {
      "bufferView": 2,
      "byteOffset": 92640,
      "componentType": 5126,
      "count": 24,
      "max": [
        1.0,
        1.0,
        1.0
      ],
      "min": [
        -1.0,
        -1.0,
        -1.0194026231765747
      ],
      "type": "VEC3"
    },
    {
      "bufferView": 2,
      "byteOffset": 92928,
      "componentType": 5126,
      "count": 24,
      "max": [
        1.0,
        1.0,
        1.0
      ],
      "min": [
        -1.0,
        -1.0,
        -1.0
      ],
      "type": "VEC3"
    },
    {
      "bufferView": 1,
      "byteOffset": 30880,
      "componentType": 5126,
      "count": 24,
      "max": [
        0.9790536165237427,
        0.9756054282188416
      ],
      "min": [
        0.5327892303466797,
        0.5116296410560608
      ],
      "type": "VEC2"
    },
    {
      "bufferView": 0,
      "byteOffset": 74688,
      "componentType": 5125,
      "count": 36,
      "type": "SCALAR"
    },
    {
      "bufferView": 2,
      "byteOffset": 93216,
      "componentType": 5126,
      "count": 7184,
      "max": [
        -0.6623104810714722,
        0.5766642689704895,
        -0.37206822633743286
      ],
      "min": [
        -11.005280494689941,
        -0.4717482030391693,
        -1.315393328666687
      ],
      "type": "VEC3"
    },
    {
      "bufferView": 2,
      "byteOffset": 179424,
      "componentType": 5126,
      "count": 7184,
      "max": [
        0.9999991059303284,
        0.9983716011047363,
        0.9999576210975647
      ],
      "min": [
        -0.9999967217445374,
        -0.9994301795959473,
        -0.9999446868896484
      ],
      "type": "VEC3"
    },
    {
      "bufferView": 1,
      "byteOffset": 31072,
      "componentType": 5126,
      "count": 7184,
      "max": [
        0.4778357744216919,
        0.9922995567321777
      ],
      "min": [
        0.011360704898834229,
        0.5097001194953918
      ],
      "type": "VEC2"
    },
    {
      "bufferView": 0,
      "byteOffset": 74832,
      "componentType": 5125,
      "count": 36864,
      "type": "SCALAR"
    },
    {
      "bufferView": 2,
      "byteOffset": 265632,
      "componentType": 5126,
      "count": 9446,
      "max": [
        0.5649636387825012,
        4.167959690093994,
        5.193661212921143
      ],
      "min": [
        -25.438108444213867,
        -4.167959690093994,
        -3.6649982929229736
      ],
      "type": "VEC3"
    },
    {
      "bufferView": 2,
      "byteOffset": 378984,
      "componentType": 5126,
      "count": 9446,
      "max": [
        1.0,
        1.0,
        0.9994406700134277
      ],
      "min": [
        -1.0,
        -1.0,
        -1.0
      ],
      "type": "VEC3"
    },
    {
      "bufferView": 1,
      "byteOffset": 88544,
      "componentType": 5126,
      "count": 9446,
      "max": [
        0.9925372004508972,
        0.4847722053527832
      ],
      "min": [
        0.5143840909004211,
        0.018309161067008972
      ],
      "type": "VEC2"
    },
    {
      "bufferView": 0,
      "byteOffset": 222288,
      "componentType": 5125,
      "count": 46848,
      "type": "SCALAR"
    }
  ],
  "asset": {
    "extras": {
      "author": "Not_freeguy (https://sketchfab.com/gaiya1)",
      "license": "CC-BY-4.0 (http://creativecommons.org/licenses/by/4.0/)",
      "source": "https://sketchfab.com/3d-models/hospital-modern-chair-13cf02b68fac48fe859fb9920a0bfc4f",
      "title": "Hospital Modern Chair"
    },
    "generator": "Sketchfab-16.21.0",
    "version": "2.0"
  },
  "bufferViews": [
    {
      "buffer": 0,
      "byteLength": 409680,
      "name": "floatBufferViews",
      "target": 34963
    },
    {
      "buffer": 0,
      "byteLength": 164112,
      "byteOffset": 409680,
      "byteStride": 8,
      "name": "floatBufferViews",
      "target": 34962
    },
    {
      "buffer": 0,
      "byteLength": 492336,
      "byteOffset": 573792,
      "byteStride": 12,
      "name": "floatBufferViews",
      "target": 34962
    }
  ],
  "buffers": [
    {
      "byteLength": 1066128,
      "uri": "scene.bin"
    }
  ],
  "extensionsUsed": [
    "KHR_materials_specular"
  ],
  "materials": [
    {
      "doubleSided": true,
      "extensions": {
        "KHR_materials_specular": {
          "specularColorFactor": [
            1.0,
            1.0,
            1.0
          ],
          "specularFactor": 1.0
        }
      },
      "name": "Material",
      "pbrMetallicRoughness": {
        "baseColorFactor": [
          0.026183899543379005,
          0.03372954155251143,
          0.4755156894977161,
          1.0
        ],
        "metallicFactor": 0.2252663622526636,
        "roughnessFactor": 0.4200913242009132
      }
    },
    {
      "doubleSided": true,
      "extensions": {
        "KHR_materials_specular": {
          "specularColorFactor": [
            1.0,
            1.0,
            1.0
          ],
          "specularFactor": 0.7245053272450532
        }
      },
      "name": "black",
      "pbrMetallicRoughness": {
        "baseColorFactor": [
          0.0406656,
          0.0406656,
          0.0406656,
          1.0
        ],
        "metallicFactor": 0.974124809741248,
        "roughnessFactor": 0.182648401826484
      }
    },
    {
      "doubleSided": true,
      "extensions": {
        "KHR_materials_specular": {
          "specularColorFactor": [
            1.0,
            1.0,
            1.0
          ],
          "specularFactor": 1.0
        }
      },
      "name": "Material.001",
      "pbrMetallicRoughness": {
        "baseColorFactor": [
          0.0627323,
          0.0627323,
          0.0627323,
          1.0
        ],
        "metallicFactor": 0.6940639269406392,
        "roughnessFactor": 0.9845756941120902
      }
    }
  ],
  "meshes": [
    {
      "name": "Cube_Material_0",
      "primitives": [
        {
          "attributes": {
            "NORMAL": 1,
            "POSITION": 0,
            "TEXCOORD_0": 2
          },
          "indices": 3,
          "material": 0,
          "mode": 4
        }
      ]
    },
    {
      "name": "Cube.002_black_0",
      "primitives": [
        {
          "attributes": {
            "NORMAL": 5,
            "POSITION": 4,
            "TEXCOORD_0": 6
          },
          "indices": 7,
          "material": 1,
          "mode": 4
        }
      ]
    },
    {
      "name": "Cube.009_Material.001_0",
      "primitives": [
        {
          "attributes": {
            "NORMAL": 9,
            "POSITION": 8,
            "TEXCOORD_0": 10
          },
          "indices": 11,
          "material": 2,
          "mode": 4
        }
      ]
    },
    {
      "name": "Cube.011_black_0",
      "primitives": [
        {
          "attributes": {
            "NORMAL": 13,
            "POSITION": 12,
            "TEXCOORD_0": 14
          },
          "indices": 15,
          "material": 1,
          "mode": 4
        }
      ]
    }
  ],
  "nodes": [
    {
      "children": [
        1
      ],
      "matrix": [
        1.0,
        0.0,
        0.0,
        0.0,
        0.0,
        2.220446049250313e-16,
        -1.0,
        0.0,
        0.0,
        1.0,
        2.220446049250313e-16,
        0.0,
        0.0,
        0.0,
        0.0,
        1.0
      ],
      "name": "Sketchfab_model"
    },
    {
      "children": [
        2
      ],
      "matrix": [
        0.009999999776482582,
        0.0,
        0.0,
        0.0,
        0.0,
        0.0,
        0.009999999776482582,
        0.0,
        0.0,
        -0.009999999776482582,
        0.0,
        0.0,
        0.0,
        0.0,
        0.0,
        1.0
      ],
      "name": "240a5d6422a44ad4aa74ececdddcca68.fbx"
    },
    {
      "children": [
        3,
        5,
        7,
        9
      ],
      "name": "RootNode"
    },
    {
      "children": [
        4
      ],
      "matrix": [
        100.0,
        0.0,
        0.0,
        0.0,
        -0.0,
        -1.629206793918314e-05,
        -99.99999999999868,
        0.0,
        0.0,
        99.99999999999868,
        -1.629206793918314e-05,
        0.0,
        -389.4898681640625,
        0.0,
        0.0,
        1.0
      ],
      "name": "Cube"
    },
    {
      "mesh": 0,
      "name": "Cube_Material_0"
    },
    {
      "children": [
        6
      ],
      "matrix": [
        540.4997558593728,
        4.7251991140915216e-05,
        -0.0,
        -0.0,
        5.587609588691728e-13,
        -6.391480124603261e-06,
        39.230625152587365,
        -0.0,
        -1.996241569526027e-06,
        22.83434104919394,
        3.7201863673400102e-06,
        -0.0,
        3.900359630584717,
        -152.0390625,
        29.58590316772461,
        1.0
      ],
      "name": "Cube.002"
    },
    {
      "mesh": 1,
      "name": "Cube.002_black_0"
    },
    {
      "children": [
        8
      ],
      "matrix": [
        100.0,
        0.0,
        0.0,
        0.0,
        0.0,
        -1.629206793918314e-05,
        -99.99999999999868,
        0.0,
        0.0,
        99.99999999999868,
        -1.629206793918314e-05,
        0.0,
        591.7940063476563,
        0.0,
        0.0,
        1.0
      ],
      "name": "Cube.009"
    },
    {
      "mesh": 2,
      "name": "Cube.009_Material.001_0"
    },
    {
      "children": [
        10
      ],
      "matrix": [
        44.08357620239258,
        0.0,
        0.0,
        0.0,
        0.0,
        -6.053297756147468e-06,
        -37.154876708983885,
        0.0,
        0.0,
        37.154876708983885,
        -6.053297756147468e-06,
        0.0,
        553.606689453125,
        -163.33277893066406,
        29.58590316772461,
        1.0
      ],
      "name": "Cube.011"
    },
    {
      "mesh": 3,
      "name": "Cube.011_black_0"
    }
  ],
  "scene": 0,
  "scenes": [
    {
      "name": "Sketchfab_Scene",
      "nodes": [
        0
      ]
    }
  ]
}
